<svg xmlns="http://www.w3.org/2000/svg" class="w-fit " fill="none" viewBox="116.16 0 198.5 218">
    <path d="m 116.161,108.608 c 0,73.193 47.035,109.392 102.441,109.392 52.615,0 87.692,-29.436 94.867,-71.204 h -35.874 c -6.776,24.265 -25.909,38.983 -58.196,38.983 -34.28,0 -63.377,-19.889 -66.566,-65.635 h 160.636 c 0.797,-5.967 1.196,-11.536 1.196,-17.503 C 314.665,51.7239 283.973,0.806864 217.406,0.011271 159.609,-0.784298 116.161,40.5858 116.161,108.608 Z M 153.63,89.9117 c 5.182,-40.9723 30.294,-57.6794 62.979,-57.6794 30.294,0 56.601,16.3093 60.986,57.6794 z" fill="#fffcf1" id="path132"/>
  </svg>